<svg height="60" viewBox="0 0 60 60" width="60" xmlns="http://www.w3.org/2000/svg"><g fill="none" fill-rule="evenodd"><path d="m.33687103 30c0-16.5685433 13.23036027-30 29.55083867-30 16.3204783 0 29.5508386 13.4314567 29.5508386 30s-13.2303603 30-29.5508386 30c-16.3204784 0-29.55083867-13.4314567-29.55083867-30zm0 0" fill="#333"/><path d="m18.2184245 31.9355566c1.3884261 2.5152336 4.066105 4.0801198 8.5823042 4.5129607-.6446264.4880162-1.418941 1.4145811-1.525743 2.4857434-.8105509.5232142-2.4402351.6953993-3.7075554.2968052-1.7755834-.5593636-2.4554926-4.0668017-5.1140997-3.56737-.575968.1084481-.4615373.487065.0362364.8086039.8105509.5232143 1.5734224 1.1777077 2.1617871 2.5713602.4520013 1.070211 1.4017763 2.9823213 4.4055828 2.9823213 1.1919867 0 2.027331-.1426948 2.027331-.1426948s.0228861 2.7311784.0228861 3.7928277c0 1.2243213-1.6563847 1.5696427-1.6563847 2.1584966 0 .2330682.5483139.254948.9888722.254948.870627 0 2.6824468-.7248895 2.6824468-1.9977271 0-1.0112305.016211-4.4111718.016211-5.0057335 0-1.3004252.698981-1.7123375.698981-1.7123375s.0867767 6.9416262-.1668781 7.8719962c-.2975199 1.0939935-.8343907.9389318-.8343907 1.426948 0 .7258409 2.1808589.1778929 2.9036796-1.4155324.5588034-1.2404934.3146845-8.0498891.3146845-8.0498891l.5959934-.0123669s.0333756 3.1174057.0133502 4.542451c-.020979 1.4754642-.1211058 3.3419122.75715 4.2218634.5769215.5783896 2.4478638 1.5934253 2.4478638.6659091 0-.5393864-1.0251085-.9826915-1.0251085-2.4419836v-6.7142659c.8181797 0 .6951666 2.2079642.6951666 2.2079642l.0600762 4.1019997s-.1802284 1.4944902 1.6201483 2.1204447c.6350905.2216526 1.9949089.2815844 2.0587994-.0903734.0638905-.372909-1.6373129-.9275161-1.6525704-2.0852466-.0095358-.7058636.0314685-1.1177759.0314685-4.185714s-.4129042-4.2018861-1.8518705-5.1056198c4.4408656-.4556721 7.1891101-1.5516633 8.5289032-4.4872758.1046161.0034271.5454033-1.3712953.4882377-1.3708213.3003807-1.1082629.4624909-2.4191525.4949129-3.9716718-.0076287-4.2094965-2.027331-5.6982789-2.4154418-6.3974834.5721536-3.1868505-.095359-4.6375809-.4052755-5.1351101-1.1443072-.4062045-3.9812356 1.0445259-5.5308183 2.0671719-2.5270118-.7372564-7.8671122-.665909-9.8696499.1902598-3.6951587-2.6398538-5.6500169-2.2355518-5.6500169-2.2355518s-1.2635059 2.2593342-.3337563 5.565097c-1.2158264 1.5458603-2.1217363 2.6398538-2.1217363 5.539412 0 1.6333798.192625 3.0955258.6274618 4.3721686-.0533055-.0001311.5831861 1.3674373.6007613 1.3670162zm0 0" fill="#fff"/><path d="m59.4385483 30c0 16.5685433-13.2303603 30-29.5508386 30-6.0528789 0-11.6807143-1.8474866-16.3660949-5.0172246l33.8602213-49.16336437c7.311898 5.46123927 12.0567122 14.25838627 12.0567122 24.18058897zm0 0" fill="#000" fill-opacity=".08"/></g></svg>