<?xml version="1.0" standalone="no"?>
<!DOCTYPE svg PUBLIC "-//W3C//DTD SVG 20010904//EN"
 "http://www.w3.org/TR/2001/REC-SVG-20010904/DTD/svg10.dtd">
<svg version="1.0" xmlns="http://www.w3.org/2000/svg"
 width="1000.000000pt" height="1000.000000pt" viewBox="0 0 1000.000000 1000.000000"
 preserveAspectRatio="xMidYMid meet">

<g transform="translate(0.000000,1000.000000) scale(0.100000,-0.100000)"
fill="#000000" stroke="none">
<path d="M4840 8948 c-295 -21 -538 -58 -780 -120 -41 -11 -93 -24 -115 -29
-143 -36 -449 -155 -644 -251 -745 -368 -1360 -972 -1738 -1709 -249 -484
-379 -950 -425 -1514 -24 -308 -6 -637 56 -975 96 -522 296 -1016 589 -1455
64 -96 190 -267 240 -325 430 -504 890 -847 1487 -1110 126 -56 476 -172 620
-205 152 -36 178 -43 158 -44 -10 -1 -56 8 -103 19 -47 11 -91 20 -98 20 -18
0 29 -29 53 -33 12 -2 25 -9 29 -16 5 -7 11 -12 15 -12 3 1 7 1 9 0 1 0 9 -2
17 -4 8 -2 57 -17 107 -34 51 -17 105 -32 120 -35 16 -2 28 -5 28 -6 0 -2 27
-9 65 -15 19 -3 49 -10 65 -15 101 -31 656 -57 805 -39 143 18 148 19 177 30
15 6 39 13 53 15 14 2 34 9 45 14 17 8 76 24 170 45 39 9 170 58 191 72 12 7
32 16 45 18 13 3 29 10 34 17 16 20 73 58 86 58 7 0 10 3 7 6 -3 3 -31 -2 -63
-11 -31 -9 -58 -15 -61 -13 -7 8 137 50 152 44 10 -4 12 -2 8 6 -5 7 2 9 22 5
16 -3 23 -4 15 0 -8 3 62 36 155 73 564 224 1026 540 1441 985 397 426 714
975 872 1515 13 41 26 86 31 100 15 41 63 256 81 360 75 438 75 892 0 1350 -6
36 -15 83 -20 105 -5 22 -17 74 -26 115 -91 409 -293 876 -538 1245 -347 524
-805 953 -1337 1251 -138 78 -396 204 -416 204 -3 0 -24 8 -47 19 -79 35 -152
60 -412 141 -16 5 -70 18 -120 30 -49 11 -108 25 -130 30 -140 35 -728 97
-830 89 -11 -1 -76 -6 -145 -11z m168 -534 c39 -3 72 -10 72 -14 0 -4 44 -7
98 -6 115 1 165 -14 270 -78 39 -25 66 -37 60 -27 -5 9 -28 27 -50 40 -22 12
-37 25 -35 28 15 15 237 -160 237 -187 0 -5 6 -15 14 -22 16 -17 30 -58 19
-57 -4 0 -28 24 -53 54 -25 29 -46 52 -48 50 -2 -1 20 -33 48 -71 116 -155
261 -465 340 -727 22 -73 40 -138 40 -144 0 -7 3 -13 6 -13 11 0 154 121 154
131 0 28 95 108 172 145 76 36 90 39 168 39 133 0 186 -33 205 -130 21 -110
-169 -265 -351 -286 -72 -8 -102 -23 -213 -106 -2 -2 -2 -5 1 -8 3 -3 12 0 20
8 15 15 90 61 125 76 12 6 45 12 75 15 29 2 66 9 82 16 74 28 162 73 169 86 4
8 15 14 22 14 8 0 15 4 15 9 0 4 14 22 30 39 17 18 30 41 30 51 0 11 5 23 11
27 14 8 4 75 -17 121 -21 43 -66 69 -148 87 -72 15 -102 29 -45 22 83 -11 146
-30 168 -50 32 -29 58 -90 65 -156 8 -67 -19 -133 -80 -195 -42 -44 -166 -109
-226 -120 -43 -8 -133 -60 -179 -102 -47 -44 -68 -86 -74 -144 -7 -74 -28
-169 -36 -169 -4 0 -11 19 -15 43 -18 98 -13 -3 6 -144 12 -85 30 -248 40
-362 10 -115 20 -210 22 -212 1 -2 120 -17 263 -34 143 -17 350 -45 460 -61
191 -29 200 -30 213 -13 18 24 80 131 127 218 21 39 51 94 67 123 49 87 146
339 182 472 52 190 60 236 60 355 1 174 -29 266 -119 363 -75 81 -139 111
-270 128 l-100 13 110 -3 c97 -2 116 -6 164 -30 77 -40 161 -127 198 -206 51
-109 70 -273 48 -427 -39 -274 -98 -446 -267 -782 -70 -140 -127 -255 -125
-256 1 -1 108 -28 237 -60 280 -69 424 -118 585 -200 215 -109 341 -221 412
-362 31 -63 36 -84 40 -165 7 -136 -27 -228 -130 -351 -57 -67 -57 -51 -1 25
87 117 115 205 104 324 -4 43 -14 95 -20 114 -17 47 -90 149 -136 189 -142
125 -465 272 -739 336 -105 25 -398 85 -400 82 -1 -1 -57 -90 -125 -197 -68
-107 -151 -233 -185 -280 -103 -144 -178 -257 -143 -215 18 21 43 51 56 65 23
24 23 24 19 3 -3 -12 0 -24 5 -25 7 -3 3 -18 -8 -38 -12 -24 -18 -58 -18 -105
-1 -64 3 -78 48 -168 54 -108 135 -204 241 -285 33 -26 69 -55 80 -65 42 -39
122 -77 161 -77 46 1 174 34 183 48 15 24 169 84 275 109 121 27 232 3 280
-60 43 -58 36 -208 -14 -306 -22 -43 -93 -110 -158 -149 -24 -14 -92 -42 -150
-63 -71 -26 -115 -48 -130 -65 -23 -26 -23 -31 -17 -133 11 -159 12 -171 19
-178 3 -3 6 -16 6 -27 0 -12 -18 14 -41 59 -61 118 -67 115 -12 -5 27 -58 64
-144 83 -192 19 -48 36 -85 38 -83 2 2 -5 29 -17 59 -11 31 -17 56 -12 56 4 0
18 -28 30 -62 13 -35 29 -76 36 -93 38 -84 47 -126 52 -240 2 -66 0 -138 -5
-160 -8 -31 -10 -34 -12 -15 -1 15 -7 3 -16 -34 -75 -311 -353 -465 -746 -412
-120 16 -397 84 -448 111 -37 19 -53 19 -20 0 l25 -14 -33 -1 c-19 0 -66 9
-105 19 -235 64 -298 70 -364 36 -33 -17 -53 -19 -53 -5 0 6 -4 10 -9 10 -10
0 -18 -21 -71 -185 -114 -360 -294 -646 -486 -776 -78 -53 -120 -71 -203 -90
-103 -23 -266 8 -331 62 l-25 21 35 -19 c81 -44 134 -57 220 -57 142 1 244 46
361 159 145 141 311 467 388 763 31 117 40 181 22 154 -6 -10 -14 -2 -30 30
-11 24 -21 50 -21 56 0 24 -49 90 -92 125 -24 19 -90 63 -148 97 -58 35 -132
81 -165 104 -33 22 -69 46 -80 52 -11 6 -49 28 -84 48 -99 57 -137 64 -224 42
-67 -17 -118 -35 -159 -57 -34 -18 -42 -9 -15 16 40 38 33 41 -13 5 -47 -37
-62 -57 -35 -46 15 5 16 4 5 -9 -9 -11 -15 -12 -20 -5 -5 8 -20 3 -46 -15 -51
-34 -56 -41 -17 -21 37 19 43 20 43 6 0 -6 -11 -15 -25 -22 -13 -6 -22 -14
-20 -19 3 -4 1 -10 -5 -14 -15 -9 -176 -226 -194 -262 -11 -23 -16 -60 -16
-130 0 -54 -3 -108 -6 -120 -5 -20 -9 -21 -28 -11 -15 8 -12 1 13 -27 18 -21
49 -73 69 -114 28 -61 36 -92 40 -153 5 -88 -7 -129 -47 -157 -67 -47 -142
-33 -226 42 -91 81 -141 202 -133 323 5 74 5 74 -19 69 -15 -2 -41 7 -70 25
-40 26 -86 37 -170 43 -29 2 -29 10 0 30 12 9 -12 1 -53 -17 -137 -62 -346
-135 -468 -165 -220 -54 -386 -51 -542 9 -71 28 -95 44 -146 94 -69 70 -109
133 -142 226 -14 40 -21 52 -18 30 9 -52 -10 -19 -35 63 -19 60 -21 85 -16
185 6 122 11 155 28 210 6 18 9 36 6 39 -9 8 23 104 53 163 16 30 46 109 66
175 20 65 45 133 55 150 21 37 49 141 49 185 0 61 -73 109 -305 202 -135 55
-286 130 -355 178 -14 9 -33 20 -43 23 -10 4 -63 36 -117 72 -136 90 -240 201
-293 317 -19 40 -50 157 -60 223 -15 99 32 320 78 360 26 23 38 74 60 265 9
74 19 142 22 150 4 8 8 28 10 45 3 16 16 55 31 85 14 30 26 64 27 75 2 27 65
216 79 236 6 9 25 28 42 42 l30 26 -9 -52 c-5 -29 -19 -74 -30 -102 -16 -41
-19 -64 -14 -130 3 -44 1 -131 -4 -193 -8 -86 -7 -117 2 -128 19 -23 31 -1 34
61 1 49 5 60 31 80 42 35 60 31 84 -16 19 -37 20 -79 1 -79 -4 0 -6 -13 -3
-30 2 -16 0 -30 -6 -30 -14 0 -22 -38 -9 -43 7 -2 -2 -16 -18 -31 -26 -25 -18
-22 65 19 159 80 341 151 507 199 87 25 175 48 195 52 l37 6 -42 60 c-46 67
-73 95 -138 149 -24 20 -57 62 -73 93 -16 31 -31 56 -33 56 -3 0 -2 -13 2 -30
6 -27 4 -30 -18 -30 -14 0 -27 -3 -29 -7 -6 -15 -67 -53 -84 -53 -13 0 -75 34
-122 66 -2 1 -1 16 3 32 8 37 52 60 83 43 17 -9 25 -5 53 30 19 23 38 50 43
60 11 24 23 24 29 2 3 -10 5 22 6 70 1 68 6 97 22 130 l22 42 -22 -19 -21 -19
6 34 c3 19 10 47 15 63 11 34 5 44 -14 27 -12 -9 -15 2 -21 66 -4 46 -3 79 2
81 5 1 29 21 53 43 68 63 98 83 103 67 15 -46 13 -104 -4 -144 -14 -31 -16
-44 -7 -44 7 0 3 -7 -7 -15 -12 -9 -15 -15 -7 -15 8 0 11 -8 8 -20 -3 -11 -1
-23 4 -26 16 -10 10 -31 -13 -42 -21 -11 -20 -12 9 -6 21 3 45 -2 73 -16 l41
-21 -15 23 c-15 23 -14 23 25 25 22 0 45 6 52 11 7 6 32 13 57 17 l45 7 21
-44 c16 -33 19 -49 12 -68 -6 -14 -8 -50 -5 -81 4 -43 1 -63 -13 -83 l-17 -27
-13 31 c-25 59 -29 40 -6 -28 13 -38 27 -101 31 -142 7 -65 13 -82 62 -159 30
-47 61 -96 69 -108 12 -18 18 -20 46 -13 79 22 502 81 713 100 127 11 235 22
241 25 6 2 15 39 18 82 4 43 25 165 47 272 37 183 49 267 27 192 -5 -19 -15
-43 -23 -53 -10 -16 -13 5 -13 132 0 194 -12 232 -120 380 -36 49 -30 60 20
36 74 -37 29 -3 -99 77 -141 87 -199 119 -243 132 -23 7 -23 7 -6 -11 18 -17
18 -18 0 -31 -21 -15 -48 -17 -73 -4 -17 10 -61 -1 -106 -25 -11 -6 -37 -17
-57 -23 -20 -7 -67 -32 -104 -57 -38 -24 -71 -44 -76 -44 -4 0 -19 -11 -33
-26 -23 -23 -45 -25 -45 -3 0 5 33 33 74 63 40 30 76 62 79 70 3 8 33 27 66
42 34 16 61 32 61 37 0 4 5 5 11 2 16 -11 50 26 43 47 -7 23 13 24 63 3 60
-25 52 -16 -18 20 -90 46 -276 114 -374 136 -95 22 -258 25 -330 5 -72 -19
-112 -42 -173 -100 -72 -68 -110 -145 -123 -249 -6 -45 -14 -100 -19 -122 -7
-35 -8 -31 -9 36 -4 248 116 415 340 474 64 17 240 19 325 4 183 -33 456 -140
659 -258 147 -85 245 -140 245 -136 0 2 -21 19 -47 36 -27 18 -52 39 -56 46
-4 7 -16 13 -25 13 -21 0 -82 36 -82 49 0 5 20 13 44 16 46 7 86 -6 86 -29 0
-21 42 -36 95 -32 28 2 57 6 66 10 22 9 61 81 69 128 7 35 6 38 -16 38 -46 0
-23 51 60 133 35 36 76 86 90 113 14 27 26 43 26 37 0 -7 7 -10 15 -7 12 5 14
0 9 -27 -3 -19 14 9 39 66 87 196 195 391 264 477 l27 33 -37 -34 c-30 -28
-111 -146 -153 -221 -6 -11 -14 -17 -19 -12 -5 4 -5 1 -1 -6 7 -12 -60 -164
-76 -170 -4 -2 -8 -13 -8 -25 0 -31 -15 -50 -39 -52 -24 -2 -25 -1 -10 26 6
11 12 28 14 38 7 35 50 118 78 149 10 10 17 22 17 26 0 4 11 31 24 59 14 29
27 65 30 81 3 16 11 36 18 45 24 30 38 61 38 84 0 13 -6 24 -12 25 -74 7 -158
21 -167 27 -7 4 -16 18 -21 31 -5 13 -21 26 -35 30 -34 8 -32 19 8 34 17 6 41
15 52 19 12 5 20 17 20 31 0 25 18 33 100 50 43 9 283 5 403 -6z m125 -11 c-7
-2 -19 -2 -25 0 -7 3 -2 5 12 5 14 0 19 -2 13 -5z m-1518 -163 c-3 -5 -11 -10
-16 -10 -6 0 -7 5 -4 10 3 6 11 10 16 10 6 0 7 -4 4 -10z m-269 -105 c-11 -8
-25 -15 -30 -15 -6 1 0 7 14 15 32 19 40 18 16 0z m-91 -45 c-3 -5 -11 -10
-17 -10 -6 0 -41 -20 -78 -45 -74 -49 -80 -52 -80 -31 0 18 42 46 110 72 65
26 73 27 65 14z m-552 -660 c-3 -11 -7 -20 -9 -20 -2 0 -4 9 -4 20 0 11 4 20
9 20 5 0 7 -9 4 -20z m-23 -39 c0 -12 -20 -25 -27 -18 -7 7 6 27 18 27 5 0 9
-4 9 -9z m767 -52 c36 -13 18 -43 -21 -35 -17 4 -32 11 -34 16 -2 5 -10 6 -18
3 -8 -3 -14 1 -14 10 0 27 26 29 87 6z m-850 -44 c-15 -16 -22 -11 -13 10 3 9
10 13 16 10 6 -4 5 -11 -3 -20z m-338 -789 c25 -29 53 -144 67 -272 5 -45 3
-55 -16 -74 -13 -13 -20 -29 -17 -41 3 -10 1 -17 -4 -14 -4 3 -15 -7 -23 -23
-8 -16 -24 -32 -34 -34 -23 -7 -52 8 -52 26 0 8 -9 16 -20 19 -14 4 -19 12
-18 29 2 17 -2 23 -14 22 -11 -1 -18 5 -18 17 0 11 -7 19 -16 19 -13 0 -15 8
-9 46 3 26 12 63 20 82 20 47 19 50 -7 22 l-23 -25 -3 28 c-5 40 29 117 53
123 11 3 26 18 33 33 11 24 18 28 52 28 22 0 44 -5 49 -11z m181 -112 c0 -13
-21 -44 -30 -44 -14 0 -12 24 2 38 13 13 28 16 28 6z m-480 -728 c0 -3 -4 -8
-10 -11 -5 -3 -10 -1 -10 4 0 6 5 11 10 11 6 0 10 -2 10 -4z m5528 -748 c-1
-38 -5 -68 -10 -68 -20 0 -78 56 -78 76 0 11 17 46 38 77 l37 56 7 -37 c4 -20
7 -67 6 -104z m-5328 -1204 c0 -18 -26 -18 -33 0 -3 8 -3 16 0 19 9 10 33 -5
33 -19z m5478 -235 c-3 -8 -7 -3 -11 10 -4 17 -3 21 5 13 5 -5 8 -16 6 -23z
m-1571 -2195 c-3 -3 -12 -4 -19 -1 -8 3 -5 6 6 6 11 1 17 -2 13 -5z m-52 -14
c-11 -5 -27 -9 -35 -9 -9 0 -8 4 5 9 11 5 27 9 35 9 9 0 8 -4 -5 -9z m-58 -16
c-3 -3 -12 -4 -19 -1 -8 3 -5 6 6 6 11 1 17 -2 13 -5z m-40 -10 c-3 -3 -12 -4
-19 -1 -8 3 -5 6 6 6 11 1 17 -2 13 -5z m-44 -11 c-7 -2 -19 -2 -25 0 -7 3 -2
5 12 5 14 0 19 -2 13 -5z m-50 -10 c-7 -2 -19 -2 -25 0 -7 3 -2 5 12 5 14 0
19 -2 13 -5z m-1480 -20 c-7 -2 -19 -2 -25 0 -7 3 -2 5 12 5 14 0 19 -2 13 -5z"/>
<path d="M4909 8142 c-84 -90 -182 -247 -228 -367 -40 -102 -38 -118 3 -35 44
90 128 230 138 230 11 0 10 -14 -1 -25 -19 -22 -72 -169 -69 -193 3 -25 7 -27
51 -30 43 -3 47 -5 47 -28 0 -17 -8 -27 -27 -35 -26 -10 -56 -43 -59 -64 0 -5
-2 -15 -2 -21 -1 -6 -18 -19 -38 -30 -24 -13 -42 -33 -55 -64 -11 -25 -28 -54
-39 -65 -45 -48 -79 -281 -59 -404 14 -91 35 -134 112 -228 37 -45 67 -85 67
-88 0 -12 -24 -3 -63 23 -138 94 -73 38 159 -136 l202 -150 68 60 c99 86 116
105 63 70 -25 -17 -51 -37 -58 -46 -7 -9 -28 -25 -47 -37 -33 -20 -34 -20 -58
-2 -14 10 -26 23 -26 28 0 6 -25 24 -56 40 -30 17 -72 47 -92 67 -20 21 -42
38 -49 38 -20 0 -23 16 -3 17 10 1 21 -5 24 -12 3 -8 21 -17 41 -21 24 -4 40
-14 47 -29 13 -28 47 -44 73 -35 11 4 30 3 43 -1 17 -7 33 -2 65 18 23 14 43
29 45 33 6 16 183 190 262 259 122 105 130 112 183 151 27 19 67 52 90 72 23
21 45 38 48 38 10 0 76 65 93 92 10 14 19 39 20 55 2 15 4 31 5 36 2 12 39 8
44 -5 4 -9 6 -8 7 2 1 11 49 -122 50 -138 0 -2 -9 0 -21 3 -17 6 -20 4 -15
-12 4 -13 -2 -23 -22 -35 -15 -9 -38 -29 -52 -44 -23 -26 -18 -25 25 9 5 4 29
21 53 38 23 17 42 36 42 42 0 33 -64 249 -105 353 -125 321 -216 491 -321 601
-43 44 -54 53 -32 25 65 -86 65 -85 -14 -42 -116 62 -176 79 -266 76 -54 -1
-93 -9 -132 -26 -55 -23 -139 -85 -173 -127 -10 -13 -25 -23 -33 -23 -8 0 -13
-4 -9 -9 3 -5 1 -12 -5 -16 -23 -14 -8 34 20 65 17 18 30 37 30 41 0 4 6 14
13 21 23 24 79 98 74 98 -3 0 -38 -35 -78 -78z m948 -744 c-3 -8 -6 -5 -6 6
-1 11 2 17 5 13 3 -3 4 -12 1 -19z m10 -40 c-3 -8 -6 -5 -6 6 -1 11 2 17 5 13
3 -3 4 -12 1 -19z"/>
<path d="M4557 7438 c-2 -13 -21 -95 -41 -182 -20 -88 -34 -161 -32 -163 2 -2
11 27 20 64 9 37 25 97 35 133 24 81 40 170 30 170 -3 0 -9 -10 -12 -22z"/>
<path d="M4376 7359 c-9 -29 -16 -57 -15 -63 0 -6 9 16 20 49 10 32 16 61 14
63 -2 2 -11 -20 -19 -49z"/>
<path d="M4351 7268 c0 -9 -4 -25 -7 -35 -5 -17 -5 -17 6 0 6 10 9 25 7 35 -4
15 -5 15 -6 0z"/>
<path d="M4015 7190 c3 -5 8 -10 11 -10 2 0 4 5 4 10 0 6 -5 10 -11 10 -5 0
-7 -4 -4 -10z"/>
<path d="M4321 7158 c-7 -25 -11 -52 -8 -60 3 -7 6 -3 6 10 1 13 6 32 12 43 5
11 9 28 7 37 -2 9 -10 -4 -17 -30z"/>
<path d="M4471 7064 c0 -11 3 -14 6 -6 3 7 2 16 -1 19 -3 4 -6 -2 -5 -13z"/>
<path d="M6132 6775 c0 -16 2 -22 5 -12 2 9 2 23 0 30 -3 6 -5 -1 -5 -18z"/>
<path d="M6053 6658 c0 -26 -2 -50 -4 -53 -3 -3 -28 6 -55 20 -27 14 -62 25
-77 25 -34 0 -103 -30 -166 -73 -26 -18 -54 -36 -62 -42 -65 -41 -100 -67
-136 -100 -45 -40 -87 -65 -109 -65 -8 0 -14 -3 -14 -7 0 -5 -21 -16 -46 -27
-33 -13 -48 -16 -56 -8 -8 8 8 30 58 78 81 78 63 67 -59 -35 -48 -41 -86 -77
-85 -82 8 -19 296 -249 313 -249 43 0 532 -41 562 -46 32 -6 32 -5 28 27 -3
19 -14 129 -26 244 -20 206 -69 494 -66 393z"/>
<path d="M4582 6674 c10 -10 20 -16 22 -13 3 3 -5 11 -17 18 -21 13 -21 12 -5
-5z"/>
<path d="M4640 6633 c0 -4 17 -22 37 -40 l36 -34 -34 8 c-52 11 -126 5 -162
-13 -18 -9 -54 -40 -81 -68 l-49 -51 6 85 c8 139 -15 16 -67 -354 l-23 -158
101 7 c211 14 178 -2 394 194 l192 174 -125 92 c-182 136 -225 166 -225 158z"/>
<path d="M2588 6623 c7 -3 16 -2 19 1 4 3 -2 6 -13 5 -11 0 -14 -3 -6 -6z"/>
<path d="M4191 6584 c0 -11 3 -14 6 -6 3 7 2 16 -1 19 -3 4 -6 -2 -5 -13z"/>
<path d="M5494 6508 l-19 -23 23 19 c21 18 27 26 19 26 -2 0 -12 -10 -23 -22z"/>
<path d="M5065 6154 c-55 -47 -103 -88 -107 -92 -4 -4 97 -8 224 -10 128 -1
230 -1 227 1 -141 116 -230 187 -236 186 -5 0 -53 -38 -108 -85z"/>
<path d="M4909 5973 l-65 -4 -215 -217 c-118 -119 -258 -266 -312 -325 l-97
-108 1 -62 c1 -34 4 -48 6 -32 5 34 23 59 23 32 0 -10 8 -17 20 -17 11 0 20 5
20 11 0 5 5 7 11 3 6 -3 9 -22 7 -40 -2 -19 -1 -34 2 -34 3 0 4 -25 2 -55 -2
-30 0 -55 5 -55 5 0 9 -8 10 -17 1 -10 6 -108 12 -218 12 -214 25 -275 71
-329 44 -53 87 -93 109 -105 11 -7 21 -18 21 -26 0 -8 5 -15 10 -15 6 0 41
-30 78 -67 80 -81 131 -123 149 -123 7 0 13 -4 13 -8 0 -15 85 -47 135 -50
251 -14 586 -15 636 -2 47 13 82 32 198 107 131 86 284 250 346 373 34 67 45
137 45 279 0 90 4 139 15 164 8 19 12 37 8 40 -3 3 -2 32 3 64 l8 58 7 -50 c4
-39 6 -28 7 50 l1 100 -167 178 c-155 165 -292 298 -454 440 l-65 57 -269 4
c-148 2 -299 2 -335 -1z m326 -543 c89 -13 214 -73 283 -135 29 -26 52 -42 52
-36 0 6 -3 11 -8 11 -4 0 -12 8 -19 19 -10 16 -8 18 12 15 13 -1 29 -5 36 -10
7 -4 9 -3 6 4 -5 6 0 8 13 5 10 -3 22 -13 25 -22 3 -10 26 -39 51 -65 25 -26
43 -50 40 -53 -3 -3 3 -22 14 -42 55 -103 66 -257 30 -431 -28 -137 -73 -221
-163 -306 -143 -136 -336 -203 -537 -188 -117 8 -124 9 -135 16 -6 3 -28 9
-50 13 -47 8 -145 51 -145 64 0 5 -13 14 -28 20 -16 7 -49 32 -75 56 -25 25
-51 45 -57 45 -5 0 -10 5 -10 12 0 6 -13 38 -29 72 -16 34 -32 77 -36 96 -4
19 -10 40 -13 45 -9 15 -11 28 -17 170 -6 156 14 266 52 286 13 7 21 14 18 17
-9 9 16 42 33 42 13 0 14 2 3 9 -14 9 -7 31 11 31 6 0 18 9 28 20 9 11 27 21
38 23 12 2 29 10 39 18 49 41 54 43 46 23 -4 -12 10 -4 38 21 94 86 221 138
354 143 17 1 61 -3 100 -8z"/>
<path d="M5660 5936 c14 -13 97 -90 185 -170 88 -81 202 -191 253 -244 l93
-97 -5 40 c-3 22 -11 132 -17 245 -6 113 -13 206 -14 208 -3 4 -452 41 -495
42 l-25 0 25 -24z"/>
<path d="M4368 5940 c-38 -3 -70 -8 -72 -11 -2 -2 -9 -49 -15 -104 -7 -55 -14
-113 -17 -128 -5 -24 8 -14 78 60 46 48 106 112 132 141 l49 52 -44 -1 c-24
-1 -74 -5 -111 -9z"/>
<path d="M3975 5904 c-55 -7 -172 -20 -260 -28 -88 -9 -251 -35 -362 -58
l-203 -41 23 -31 c13 -17 97 -129 187 -250 91 -120 166 -213 168 -207 2 6 -2
19 -10 29 -12 15 -11 16 5 3 10 -8 17 -9 17 -3 0 16 53 6 113 -22 57 -28 82
-32 92 -16 3 5 19 7 35 3 23 -4 30 -2 30 10 0 9 8 16 18 16 40 1 98 14 112 25
8 6 4 -5 -9 -24 -14 -22 -1 -12 38 29 53 57 61 70 66 115 3 28 14 134 25 236
11 102 23 195 25 208 3 12 2 21 -2 21 -5 -1 -53 -7 -108 -15z"/>
<path d="M6226 5873 c2 -21 11 -128 19 -238 25 -320 19 -295 75 -357 44 -49
51 -54 83 -50 19 2 38 -1 41 -7 4 -6 14 -11 22 -11 9 0 23 -7 32 -16 11 -12
17 -13 20 -5 3 8 9 6 18 -6 7 -10 14 -13 14 -7 0 5 16 10 36 11 19 1 51 4 70
7 36 7 46 -8 22 -32 -7 -7 -9 -12 -6 -12 23 0 437 624 424 638 -11 10 -356 63
-603 92 -144 16 -264 30 -267 30 -2 0 -2 -17 0 -37z"/>
<path d="M2749 5675 c-171 -46 -532 -182 -523 -197 8 -13 -16 -98 -27 -98 -17
0 -68 -65 -69 -87 0 -28 -40 -59 -52 -40 -11 17 -10 67 1 67 5 0 14 15 20 33
7 17 19 45 26 60 l15 28 -60 -33 c-33 -18 -60 -36 -60 -40 0 -3 7 -14 16 -23
16 -16 13 -45 -6 -45 -5 0 -10 -4 -10 -9 0 -5 -20 -29 -45 -53 -24 -24 -45
-48 -45 -55 0 -6 -8 -14 -17 -16 -14 -4 -13 -5 4 -6 33 -2 37 -19 11 -46 -27
-29 -48 -32 -48 -7 0 14 -2 14 -9 3 -5 -8 -7 -20 -4 -28 3 -7 0 -20 -7 -28
-21 -25 -15 -108 13 -167 48 -102 129 -191 257 -280 119 -82 208 -126 405
-199 181 -67 411 -99 490 -69 89 34 235 241 295 417 21 62 21 93 1 158 -10 32
-13 39 -82 183 -38 78 -45 99 -36 114 13 21 43 24 50 6 2 -7 8 -10 12 -6 4 4
-44 76 -107 160 -63 84 -142 194 -176 245 -34 50 -65 94 -69 96 -5 2 -78 -15
-164 -38z"/>
<path d="M1915 5540 c-3 -5 -1 -10 4 -10 6 0 11 5 11 10 0 6 -2 10 -4 10 -3 0
-8 -4 -11 -10z"/>
<path d="M1926 5474 c-9 -24 -2 -26 12 -4 7 11 8 20 3 20 -5 0 -12 -7 -15 -16z"/>
<path d="M1889 5274 l-34 -37 31 18 c17 9 36 26 42 36 20 31 -2 21 -39 -17z"/>
<path d="M6280 5183 c0 -11 7 -20 15 -20 12 0 12 3 3 16 -7 9 -14 18 -15 20
-2 2 -3 -5 -3 -16z"/>
<path d="M6192 5065 c0 -16 2 -22 5 -12 2 9 2 23 0 30 -3 6 -5 -1 -5 -18z"/>
<path d="M6550 4643 c-8 -4 -20 -12 -27 -19 -7 -7 -16 -14 -20 -16 -8 -3 -71
-73 -103 -114 -47 -58 -61 -131 -40 -205 19 -70 92 -89 238 -64 116 20 208 65
217 105 17 77 -28 197 -92 248 -84 66 -128 82 -173 65z"/>
<path d="M6800 4593 c18 -24 35 -43 37 -43 7 0 -35 56 -54 71 -9 8 -2 -5 17
-28z"/>
<path d="M6965 3835 c-55 -7 -132 -15 -171 -18 -115 -10 -324 -46 -392 -67
-89 -28 -111 -43 -162 -116 -44 -62 -60 -76 -60 -52 0 59 -36 -139 -54 -297
-3 -27 -2 -42 2 -31 7 15 11 12 24 -20 9 -22 22 -68 30 -103 17 -86 68 -142
218 -239 63 -42 158 -104 211 -139 54 -35 102 -63 108 -63 7 0 22 -11 35 -25
13 -14 28 -25 35 -25 6 0 11 -5 11 -10 0 -6 -12 -8 -27 -5 -43 9 -8 -9 62 -33
206 -70 451 -77 584 -16 66 30 149 99 175 145 l18 34 -26 -30 c-26 -29 -27
-29 -20 -5 3 14 14 43 23 65 14 32 17 66 16 165 -1 69 -5 136 -8 150 -7 26
-22 115 -31 185 -5 37 -4 38 9 21 8 -11 16 -29 16 -40 1 -16 2 -17 6 -5 8 31
-112 313 -129 303 -9 -6 -19 4 -63 62 -49 65 -102 117 -159 157 -105 73 -105
73 -281 52z m523 -313 c2 -7 -3 -12 -10 -12 -8 0 -15 7 -15 15 0 18 19 15 25
-3z m16 -48 c3 -8 2 -12 -4 -9 -6 3 -10 10 -10 16 0 14 7 11 14 -7z"/>
<path d="M3285 3824 c-83 -43 -276 -291 -362 -465 -69 -142 -112 -268 -156
-464 -7 -27 -11 -97 -11 -154 1 -92 0 -103 -12 -86 -8 10 -14 23 -14 29 0 5
-3 7 -6 4 -9 -10 23 -74 65 -132 33 -45 55 -62 115 -91 168 -81 419 -57 737
69 195 78 298 129 224 110 -24 -6 -25 -5 -11 21 8 14 21 34 29 43 51 55 96
112 118 147 23 38 24 49 23 180 0 77 -4 172 -8 210 -31 306 -54 392 -119 458
-88 88 -513 172 -612 121z"/>
<path d="M7416 3687 c3 -10 9 -15 12 -12 3 3 0 11 -7 18 -10 9 -11 8 -5 -6z"/>
<path d="M5792 3679 c-102 -17 -183 -67 -202 -124 -10 -29 -8 -41 9 -77 29
-63 38 -71 149 -138 142 -83 188 -80 262 19 l40 53 1 -33 c2 -41 28 101 27
146 l0 30 -8 -30 c-4 -16 -8 -22 -9 -13 0 9 -16 44 -33 78 -50 94 -97 112
-236 89z m265 -221 c-3 -7 -5 -2 -5 12 0 14 2 19 5 13 2 -7 2 -19 0 -25z"/>
<path d="M4440 3612 c-24 -24 -29 -39 -35 -106 -12 -123 13 -235 65 -298 26
-31 31 -33 90 -31 74 2 139 29 193 81 96 92 94 168 -4 255 -143 126 -248 159
-309 99z"/>
<path d="M7441 3635 c0 -5 6 -21 14 -35 8 -14 14 -20 14 -15 0 6 -6 21 -14 35
-8 14 -14 21 -14 15z"/>
<path d="M6042 3320 c0 -14 2 -19 5 -12 2 6 2 18 0 25 -3 6 -5 1 -5 -13z"/>
<path d="M7601 3230 c0 -8 4 -24 9 -35 5 -13 9 -14 9 -5 0 8 -4 24 -9 35 -5
13 -9 14 -9 5z"/>
<path d="M4795 3218 c-5 -5 -32 -30 -60 -55 -45 -40 -43 -39 18 8 37 29 67 54
67 56 0 7 -15 1 -25 -9z"/>
<path d="M7741 2994 c0 -11 3 -14 6 -6 3 7 2 16 -1 19 -3 4 -6 -2 -5 -13z"/>
<path d="M7626 2815 c-3 -9 -6 -22 -5 -28 0 -7 5 -1 10 12 5 13 8 26 5 28 -2
2 -6 -3 -10 -12z"/>
<path d="M4030 1260 c8 -5 22 -9 30 -9 10 0 8 3 -5 9 -27 12 -43 12 -25 0z"/>
</g>
</svg>
